# ProBuilder 4.2.3
# https://unity3d.com/unity/features/worldbuilding/probuilder
# 4/25/2020 5:03:10 PM

mtllib ./HouseShell.mtl
o HouseShell

g Floor
v 3.15 0.14 2.89 0.9294118 0.9333333 0.7254902
v -4.85 0.14 2.89 0.9294118 0.9333333 0.7254902
v 3.15 0.24 2.89 0.9294118 0.9333333 0.7254902
v -4.85 0.24 2.89 0.9294118 0.9333333 0.7254902
v -4.85 0.14 -5.11 0.9294118 0.9333333 0.7254902
v -4.85 0.24 -5.11 0.9294118 0.9333333 0.7254902
v 3.15 0.14 -5.11 0.9294118 0.9333333 0.7254902
v 3.15 0.24 -5.11 0.9294118 0.9333333 0.7254902

vt 0 0
vt -8 0
vt 0 0.1
vt -8 0.1
vt 8 0
vt 8 0.1
vt 0 -8
vt 8 -8
vt -8 -8

vn 0 0 1
vn -1 0 0
vn 0 0 -1
vn 1 0 0
vn 0 1 0
vn 0 -1 0

usemtl Default1
f 3/3/1 4/4/1 2/2/1 1/1/1
f 4/3/2 6/4/2 5/2/2 2/1/2
f 6/6/3 8/3/3 7/1/3 5/5/3
f 8/6/4 3/3/4 1/1/4 7/5/4
f 8/7/5 6/8/5 4/5/5 3/1/5
f 1/1/6 2/2/6 5/9/6 7/7/6

g Roof
v 3.15 4.14 2.89 0.9294118 0.9333333 0.7254902
v -4.85 4.14 2.89 0.9294118 0.9333333 0.7254902
v 3.15 4.24 2.89 0.9294118 0.9333333 0.7254902
v -4.85 4.24 2.89 0.9294118 0.9333333 0.7254902
v -4.85 4.14 -5.11 0.9294118 0.9333333 0.7254902
v -4.85 4.24 -5.11 0.9294118 0.9333333 0.7254902
v 3.15 4.14 -5.11 0.9294118 0.9333333 0.7254902
v 3.15 4.24 -5.11 0.9294118 0.9333333 0.7254902

vt 0 0
vt -8 0
vt 0 0.1
vt -8 0.1
vt 8 0
vt 8 0.1
vt 0 -8
vt 8 -8
vt -8 -8

vn 0 0 1
vn -1 0 0
vn 0 0 -1
vn 1 0 0
vn 0 1 0
vn 0 -1 0

usemtl Default1
f 11/12/7 12/13/7 10/11/7 9/10/7
f 12/12/8 14/13/8 13/11/8 10/10/8
f 14/15/9 16/12/9 15/10/9 13/14/9
f 16/15/10 11/12/10 9/10/10 15/14/10
f 16/16/11 14/17/11 12/14/11 11/10/11
f 9/10/12 10/11/12 13/18/12 15/16/12

g Wall
v 3.15 0.14 2.89 0.9294118 0.9333333 0.7254902
v -4.85 0.14 2.89 0.9294118 0.9333333 0.7254902
v 3.15 4.24 2.89 0.9294118 0.9333333 0.7254902
v -4.85 4.24 2.89 0.9294118 0.9333333 0.7254902
v -4.85 0.14 2.79 0.9294118 0.9333333 0.7254902
v -4.85 4.24 2.79 0.9294118 0.9333333 0.7254902
v 3.15 0.14 2.79 0.9294118 0.9333333 0.7254902
v 3.15 4.24 2.79 0.9294118 0.9333333 0.7254902

vt 0 0
vt -8 0
vt 0 4.1
vt -8 4.1
vt -0.1 0
vt -0.1 4.1
vt 8 0
vt 8 4.1
vt 0.1 0
vt 0.1 4.1
vt 0 -0.1
vt 8 -0.1
vt -8 -0.1

vn 0 0 1
vn -1 0 0
vn 0 0 -1
vn 1 0 0
vn 0 1 0
vn 0 -1 0

usemtl Default1
f 19/21/13 20/22/13 18/20/13 17/19/13
f 20/21/14 22/24/14 21/23/14 18/19/14
f 22/26/15 24/21/15 23/19/15 21/25/15
f 24/28/16 19/21/16 17/19/16 23/27/16
f 24/29/17 22/30/17 20/25/17 19/19/17
f 17/19/18 18/20/18 21/31/18 23/29/18

g Wall (1)
v 3.1519 0.14 -5.11 0.9294118 0.9333333 0.7254902
v 3.149991 0.14 2.89 0.9294118 0.9333333 0.7254902
v 3.1519 4.24 -5.11 0.9294118 0.9333333 0.7254902
v 3.149991 4.24 2.89 0.9294118 0.9333333 0.7254902
v 3.049991 0.14 2.889976 0.9294118 0.9333333 0.7254902
v 3.049991 4.24 2.889976 0.9294118 0.9333333 0.7254902
v 3.0519 0.14 -5.110024 0.9294118 0.9333333 0.7254902
v 3.0519 4.24 -5.110024 0.9294118 0.9333333 0.7254902

vt 0 0
vt -8 0
vt 0 4.1
vt -8 4.1
vt -0.1 0
vt -0.1 4.1
vt 8 0
vt 8 4.1
vt 0.1 0
vt 0.1 4.1
vt 0 -0.1
vt 8 -0.1
vt -8 -0.1

vn 1 0 0.0002385974
vn -0.0002385974 0 1
vn -1 0 -0.0002385974
vn 0.0002385974 0 -1
vn 0 1 0
vn 0 -1 0

usemtl Default1
f 27/34/19 28/35/19 26/33/19 25/32/19
f 28/34/20 30/37/20 29/36/20 26/32/20
f 30/39/21 32/34/21 31/32/21 29/38/21
f 32/41/22 27/34/22 25/32/22 31/40/22
f 32/42/23 30/43/23 28/38/23 27/32/23
f 25/32/24 26/33/24 29/44/24 31/42/24

g Wall (2)
v -4.75 0.14 -5.11 0.9294118 0.9333333 0.7254902
v -4.751909 0.14 2.89 0.9294118 0.9333333 0.7254902
v -4.75 4.24 -5.11 0.9294118 0.9333333 0.7254902
v -4.751909 4.24 2.89 0.9294118 0.9333333 0.7254902
v -4.851909 0.14 2.889976 0.9294118 0.9333333 0.7254902
v -4.851909 4.24 2.889976 0.9294118 0.9333333 0.7254902
v -4.85 0.14 -5.110024 0.9294118 0.9333333 0.7254902
v -4.85 4.24 -5.110024 0.9294118 0.9333333 0.7254902

vt 0 0
vt -8 0
vt 0 4.1
vt -8 4.1
vt -0.1 0
vt -0.1 4.1
vt 8 0
vt 8 4.1
vt 0.1 0
vt 0.1 4.1
vt 0 -0.1
vt 8 -0.1
vt -8 -0.1

vn 1 0 0.0002385974
vn -0.0002385974 0 1
vn -1 0 -0.0002385974
vn 0.0002385974 0 -1
vn 0 1 0
vn 0 -1 0

usemtl Default1
f 35/47/25 36/48/25 34/46/25 33/45/25
f 36/47/26 38/50/26 37/49/26 34/45/26
f 38/52/27 40/47/27 39/45/27 37/51/27
f 40/54/28 35/47/28 33/45/28 39/53/28
f 40/55/29 38/56/29 36/51/29 35/45/29
f 33/45/30 34/46/30 37/57/30 39/55/30

